<?xml version="1.0" standalone="no"?>
<!DOCTYPE svg PUBLIC "-//W3C//DTD SVG 20010904//EN"
 "http://www.w3.org/TR/2001/REC-SVG-20010904/DTD/svg10.dtd">
<svg version="1.0" xmlns="http://www.w3.org/2000/svg"
 width="300.000000pt" height="300.000000pt" viewBox="0 0 300.000000 300.000000"
 preserveAspectRatio="xMidYMid meet">
<metadata>
Created by potrace 1.11, written by Peter Selinger 2001-2013
</metadata>
<g transform="translate(0.000000,300.000000) scale(0.100000,-0.100000)"
fill="#000000" stroke="none">
<path d="M550 2545 c0 -45 3 -55 18 -56 75 -3 115 -18 132 -50 11 -19 14 -143
6 -204 -2 -16 -7 -68 -11 -115 -3 -47 -8 -96 -10 -110 -2 -14 -7 -54 -10 -90
-3 -36 -10 -90 -15 -120 -5 -30 -11 -73 -15 -95 -3 -22 -12 -74 -20 -115 -8
-41 -17 -84 -19 -95 -19 -96 -70 -262 -98 -318 -24 -49 -72 -93 -114 -107 -19
-7 -34 -16 -35 -21 0 -5 -1 -25 -1 -44 0 -19 1 -40 1 -45 1 -7 106 -9 308 -8
l307 3 1 49 c0 47 -1 49 -41 65 -22 9 -50 23 -62 32 -29 21 -68 102 -82 171
-17 84 -14 346 5 538 2 19 7 76 10 125 3 50 8 104 10 120 2 17 7 75 11 130 3
55 9 108 13 117 4 11 57 -117 145 -350 76 -202 144 -380 151 -397 7 -16 29
-73 48 -125 20 -52 74 -194 121 -315 l84 -220 47 0 47 0 89 210 c49 116 93
219 98 230 5 11 60 136 121 278 61 142 133 305 159 361 27 57 61 131 77 166
32 72 38 67 48 -50 10 -120 36 -401 41 -445 2 -22 7 -74 10 -115 4 -41 8 -85
10 -97 9 -56 19 -183 18 -233 -2 -101 -23 -125 -123 -137 l-45 -5 -1 -54 0
-54 333 0 333 0 0 55 c0 50 -2 55 -22 56 -79 2 -145 33 -162 74 -14 33 -32
131 -41 223 -8 86 -14 143 -21 222 -4 41 -8 86 -9 100 -2 14 -6 59 -9 100 -4
41 -9 91 -11 110 -2 19 -7 69 -11 110 -3 41 -7 82 -9 90 -16 81 -23 291 -12
332 11 41 71 65 170 67 14 1 17 10 17 56 l0 55 -247 -2 -247 -3 -41 -120 c-38
-110 -146 -386 -180 -460 -7 -16 -76 -186 -152 -377 -76 -191 -140 -348 -143
-348 -3 0 -108 265 -234 588 -126 323 -235 601 -242 617 -7 17 -20 47 -28 68
l-15 37 -225 0 -226 0 0 -55z"/>
<path d="M359 515 c-3 -33 -4 -283 -1 -297 4 -15 86 -16 1150 -15 l1146 2 1
158 0 157 -25 1 c-14 0 -530 1 -1147 2 -743 1 -1123 -1 -1124 -8z"/>
</g>
</svg>
